<svg xmlns="http://www.w3.org/2000/svg" width="512" height="512" viewBox="0 0 512 512" fill="none">
  <defs>
    <linearGradient id="bg" x1="0" y1="0" x2="512" y2="512" gradientUnits="userSpaceOnUse">
      <stop offset="0" stop-color="#16121f"/>
      <stop offset="1" stop-color="#0a0a0f"/>
    </linearGradient>
    <radialGradient id="glow" cx="0" cy="0" r="1" gradientUnits="userSpaceOnUse" gradientTransform="translate(150 130) rotate(48) scale(360)">
      <stop stop-color="#7e14ff" stop-opacity="0.55"/>
      <stop offset="1" stop-color="#7e14ff" stop-opacity="0"/>
    </radialGradient>
    <linearGradient id="e" x1="156" y1="146" x2="360" y2="366" gradientUnits="userSpaceOnUse">
      <stop stop-color="#b79bff"/>
      <stop offset="0.5" stop-color="#863bff"/>
      <stop offset="1" stop-color="#47bfff"/>
    </linearGradient>
  </defs>

  <!-- Fundo squircle -->
  <rect width="512" height="512" rx="116" fill="url(#bg)"/>
  <rect width="512" height="512" rx="116" fill="url(#glow)"/>
  <rect x="1" y="1" width="510" height="510" rx="115" stroke="#ffffff" stroke-opacity="0.06" stroke-width="2"/>

  <!-- Monograma E -->
  <g fill="url(#e)">
    <!-- espinha -->
    <rect x="150" y="146" width="62" height="220" rx="24"/>
    <!-- braço superior -->
    <rect x="150" y="146" width="212" height="62" rx="24"/>
    <!-- braço inferior -->
    <rect x="150" y="304" width="212" height="62" rx="24"/>
    <!-- braço do meio em forma de play -->
    <path d="M226 218c0-9.4 10.3-15.1 18.2-10.1l66.7 42c7.4 4.7 7.4 15.5 0 20.2l-66.7 42c-7.9 5-18.2-0.7-18.2-10.1V218z"/>
  </g>
</svg>
